<svg width="162" height="20" viewBox="0 0 162 20" fill="none" xmlns="http://www.w3.org/2000/svg">
<mask id="path-1-outside-1_4109_367" maskUnits="userSpaceOnUse" x="0" y="0" width="162" height="20" fill="black">
<rect fill="white" width="162" height="20"/>
<path d="M12.3113 5.712V18H7.00725V5.712H1.58325V1.488H17.7113V5.712H12.3113ZM20.1276 1.488H34.4076V5.448H25.4316V7.728H33.1116V11.52H25.4316V14.04H34.5756V18H20.1276V1.488ZM45.3199 1.2C47.7679 1.2 49.7039 1.816 51.1279 3.048C52.5519 4.264 53.2639 6.008 53.2639 8.28H48.1999C48.1999 7.32 47.9439 6.56 47.4319 6C46.9359 5.44 46.2239 5.16 45.2959 5.16C44.2239 5.16 43.4319 5.496 42.9199 6.168C42.4239 6.84 42.1759 7.776 42.1759 8.976V10.512C42.1759 11.696 42.4239 12.632 42.9199 13.32C43.4319 13.992 44.2079 14.328 45.2479 14.328C46.2719 14.328 47.0479 14.064 47.5759 13.536C48.1039 13.008 48.3679 12.264 48.3679 11.304H53.2639C53.2639 13.56 52.5679 15.288 51.1759 16.488C49.7999 17.688 47.8479 18.288 45.3199 18.288C42.5039 18.288 40.3679 17.568 38.9119 16.128C37.4719 14.688 36.7519 12.56 36.7519 9.744C36.7519 6.928 37.4719 4.8 38.9119 3.36C40.3679 1.92 42.5039 1.2 45.3199 1.2ZM67.2636 18V11.736H61.4316V18H56.1276V1.488H61.4316V7.512H67.2636V1.488H72.5676V18H67.2636ZM95.9199 18L88.9839 9.984V18H84.1119V1.488H88.7439L95.6799 9.624V1.488H100.552V18H95.9199ZM104.104 1.488H118.384V5.448H109.408V7.728H117.088V11.52H109.408V14.04H118.552V18H104.104V1.488ZM133.832 18L131.696 7.944H131.6L129.464 18H123.632L119.768 1.488H125.288L127.184 10.848H127.28L129.152 1.488H134.384L136.376 10.848H136.472L138.248 1.488H143.528L139.664 18H133.832ZM152.36 1.2C154.472 1.2 156.208 1.632 157.568 2.496C158.928 3.344 159.624 4.608 159.656 6.288V6.576H154.688V6.48C154.688 6 154.512 5.6 154.16 5.28C153.808 4.96 153.272 4.8 152.552 4.8C151.848 4.8 151.304 4.904 150.92 5.112C150.552 5.32 150.368 5.576 150.368 5.88C150.368 6.312 150.624 6.632 151.136 6.84C151.648 7.048 152.472 7.264 153.608 7.488C154.936 7.76 156.024 8.048 156.872 8.352C157.736 8.64 158.488 9.12 159.128 9.792C159.768 10.464 160.096 11.376 160.112 12.528C160.112 14.48 159.448 15.928 158.12 16.872C156.808 17.816 155.048 18.288 152.84 18.288C150.264 18.288 148.256 17.856 146.816 16.992C145.392 16.128 144.68 14.6 144.68 12.408H149.696C149.696 13.24 149.912 13.8 150.344 14.088C150.776 14.36 151.448 14.496 152.36 14.496C153.032 14.496 153.584 14.424 154.016 14.28C154.464 14.136 154.688 13.84 154.688 13.392C154.688 12.992 154.44 12.696 153.944 12.504C153.464 12.296 152.672 12.08 151.568 11.856C150.224 11.568 149.112 11.272 148.232 10.968C147.352 10.648 146.584 10.128 145.928 9.408C145.272 8.688 144.944 7.712 144.944 6.48C144.944 4.672 145.64 3.344 147.032 2.496C148.44 1.632 150.216 1.2 152.36 1.2Z"/>
</mask>
<path d="M12.3113 5.712V18H7.00725V5.712H1.58325V1.488H17.7113V5.712H12.3113ZM20.1276 1.488H34.4076V5.448H25.4316V7.728H33.1116V11.52H25.4316V14.04H34.5756V18H20.1276V1.488ZM45.3199 1.2C47.7679 1.2 49.7039 1.816 51.1279 3.048C52.5519 4.264 53.2639 6.008 53.2639 8.28H48.1999C48.1999 7.32 47.9439 6.56 47.4319 6C46.9359 5.44 46.2239 5.16 45.2959 5.16C44.2239 5.16 43.4319 5.496 42.9199 6.168C42.4239 6.84 42.1759 7.776 42.1759 8.976V10.512C42.1759 11.696 42.4239 12.632 42.9199 13.32C43.4319 13.992 44.2079 14.328 45.2479 14.328C46.2719 14.328 47.0479 14.064 47.5759 13.536C48.1039 13.008 48.3679 12.264 48.3679 11.304H53.2639C53.2639 13.56 52.5679 15.288 51.1759 16.488C49.7999 17.688 47.8479 18.288 45.3199 18.288C42.5039 18.288 40.3679 17.568 38.9119 16.128C37.4719 14.688 36.7519 12.56 36.7519 9.744C36.7519 6.928 37.4719 4.8 38.9119 3.36C40.3679 1.92 42.5039 1.2 45.3199 1.2ZM67.2636 18V11.736H61.4316V18H56.1276V1.488H61.4316V7.512H67.2636V1.488H72.5676V18H67.2636ZM95.9199 18L88.9839 9.984V18H84.1119V1.488H88.7439L95.6799 9.624V1.488H100.552V18H95.9199ZM104.104 1.488H118.384V5.448H109.408V7.728H117.088V11.52H109.408V14.04H118.552V18H104.104V1.488ZM133.832 18L131.696 7.944H131.6L129.464 18H123.632L119.768 1.488H125.288L127.184 10.848H127.28L129.152 1.488H134.384L136.376 10.848H136.472L138.248 1.488H143.528L139.664 18H133.832ZM152.36 1.2C154.472 1.2 156.208 1.632 157.568 2.496C158.928 3.344 159.624 4.608 159.656 6.288V6.576H154.688V6.48C154.688 6 154.512 5.6 154.16 5.28C153.808 4.96 153.272 4.8 152.552 4.8C151.848 4.8 151.304 4.904 150.92 5.112C150.552 5.32 150.368 5.576 150.368 5.88C150.368 6.312 150.624 6.632 151.136 6.84C151.648 7.048 152.472 7.264 153.608 7.488C154.936 7.76 156.024 8.048 156.872 8.352C157.736 8.64 158.488 9.12 159.128 9.792C159.768 10.464 160.096 11.376 160.112 12.528C160.112 14.48 159.448 15.928 158.12 16.872C156.808 17.816 155.048 18.288 152.84 18.288C150.264 18.288 148.256 17.856 146.816 16.992C145.392 16.128 144.68 14.6 144.68 12.408H149.696C149.696 13.24 149.912 13.8 150.344 14.088C150.776 14.36 151.448 14.496 152.36 14.496C153.032 14.496 153.584 14.424 154.016 14.28C154.464 14.136 154.688 13.84 154.688 13.392C154.688 12.992 154.44 12.696 153.944 12.504C153.464 12.296 152.672 12.08 151.568 11.856C150.224 11.568 149.112 11.272 148.232 10.968C147.352 10.648 146.584 10.128 145.928 9.408C145.272 8.688 144.944 7.712 144.944 6.48C144.944 4.672 145.64 3.344 147.032 2.496C148.44 1.632 150.216 1.2 152.36 1.2Z" fill="#D9D9D9"/>
<path d="M12.3113 5.712V18H7.00725V5.712H1.58325V1.488H17.7113V5.712H12.3113ZM20.1276 1.488H34.4076V5.448H25.4316V7.728H33.1116V11.52H25.4316V14.04H34.5756V18H20.1276V1.488ZM45.3199 1.2C47.7679 1.2 49.7039 1.816 51.1279 3.048C52.5519 4.264 53.2639 6.008 53.2639 8.28H48.1999C48.1999 7.32 47.9439 6.56 47.4319 6C46.9359 5.44 46.2239 5.16 45.2959 5.16C44.2239 5.16 43.4319 5.496 42.9199 6.168C42.4239 6.84 42.1759 7.776 42.1759 8.976V10.512C42.1759 11.696 42.4239 12.632 42.9199 13.32C43.4319 13.992 44.2079 14.328 45.2479 14.328C46.2719 14.328 47.0479 14.064 47.5759 13.536C48.1039 13.008 48.3679 12.264 48.3679 11.304H53.2639C53.2639 13.56 52.5679 15.288 51.1759 16.488C49.7999 17.688 47.8479 18.288 45.3199 18.288C42.5039 18.288 40.3679 17.568 38.9119 16.128C37.4719 14.688 36.7519 12.56 36.7519 9.744C36.7519 6.928 37.4719 4.8 38.9119 3.36C40.3679 1.92 42.5039 1.2 45.3199 1.2ZM67.2636 18V11.736H61.4316V18H56.1276V1.488H61.4316V7.512H67.2636V1.488H72.5676V18H67.2636ZM95.9199 18L88.9839 9.984V18H84.1119V1.488H88.7439L95.6799 9.624V1.488H100.552V18H95.9199ZM104.104 1.488H118.384V5.448H109.408V7.728H117.088V11.52H109.408V14.04H118.552V18H104.104V1.488ZM133.832 18L131.696 7.944H131.6L129.464 18H123.632L119.768 1.488H125.288L127.184 10.848H127.28L129.152 1.488H134.384L136.376 10.848H136.472L138.248 1.488H143.528L139.664 18H133.832ZM152.36 1.2C154.472 1.2 156.208 1.632 157.568 2.496C158.928 3.344 159.624 4.608 159.656 6.288V6.576H154.688V6.48C154.688 6 154.512 5.6 154.16 5.28C153.808 4.96 153.272 4.8 152.552 4.8C151.848 4.8 151.304 4.904 150.92 5.112C150.552 5.32 150.368 5.576 150.368 5.88C150.368 6.312 150.624 6.632 151.136 6.84C151.648 7.048 152.472 7.264 153.608 7.488C154.936 7.76 156.024 8.048 156.872 8.352C157.736 8.64 158.488 9.12 159.128 9.792C159.768 10.464 160.096 11.376 160.112 12.528C160.112 14.48 159.448 15.928 158.12 16.872C156.808 17.816 155.048 18.288 152.84 18.288C150.264 18.288 148.256 17.856 146.816 16.992C145.392 16.128 144.68 14.6 144.68 12.408H149.696C149.696 13.24 149.912 13.8 150.344 14.088C150.776 14.36 151.448 14.496 152.36 14.496C153.032 14.496 153.584 14.424 154.016 14.28C154.464 14.136 154.688 13.84 154.688 13.392C154.688 12.992 154.44 12.696 153.944 12.504C153.464 12.296 152.672 12.08 151.568 11.856C150.224 11.568 149.112 11.272 148.232 10.968C147.352 10.648 146.584 10.128 145.928 9.408C145.272 8.688 144.944 7.712 144.944 6.48C144.944 4.672 145.64 3.344 147.032 2.496C148.44 1.632 150.216 1.2 152.36 1.2Z" fill="black" fill-opacity="0.2"/>
<path d="M12.3113 5.712V4.712H11.3113V5.712H12.3113ZM12.3113 18V19H13.3113V18H12.3113ZM7.00725 18H6.00725V19H7.00725V18ZM7.00725 5.712H8.00725V4.712H7.00725V5.712ZM1.58325 5.712H0.58325V6.712H1.58325V5.712ZM1.58325 1.488V0.487999H0.58325V1.488H1.58325ZM17.7113 1.488H18.7113V0.487999H17.7113V1.488ZM17.7113 5.712V6.712H18.7113V5.712H17.7113ZM12.3113 5.712H11.3113V18H12.3113H13.3113V5.712H12.3113ZM12.3113 18V17H7.00725V18V19H12.3113V18ZM7.00725 18H8.00725V5.712H7.00725H6.00725V18H7.00725ZM7.00725 5.712V4.712H1.58325V5.712V6.712H7.00725V5.712ZM1.58325 5.712H2.58325V1.488H1.58325H0.58325V5.712H1.58325ZM1.58325 1.488V2.488H17.7113V1.488V0.487999H1.58325V1.488ZM17.7113 1.488H16.7113V5.712H17.7113H18.7113V1.488H17.7113ZM17.7113 5.712V4.712H12.3113V5.712V6.712H17.7113V5.712ZM20.1276 1.488V0.487999H19.1276V1.488H20.1276ZM34.4076 1.488H35.4076V0.487999H34.4076V1.488ZM34.4076 5.448V6.448H35.4076V5.448H34.4076ZM25.4316 5.448V4.448H24.4316V5.448H25.4316ZM25.4316 7.728H24.4316V8.728H25.4316V7.728ZM33.1116 7.728H34.1116V6.728H33.1116V7.728ZM33.1116 11.52V12.52H34.1116V11.52H33.1116ZM25.4316 11.52V10.52H24.4316V11.52H25.4316ZM25.4316 14.04H24.4316V15.04H25.4316V14.04ZM34.5756 14.04H35.5756V13.04H34.5756V14.04ZM34.5756 18V19H35.5756V18H34.5756ZM20.1276 18H19.1276V19H20.1276V18ZM20.1276 1.488V2.488H34.4076V1.488V0.487999H20.1276V1.488ZM34.4076 1.488H33.4076V5.448H34.4076H35.4076V1.488H34.4076ZM34.4076 5.448V4.448H25.4316V5.448V6.448H34.4076V5.448ZM25.4316 5.448H24.4316V7.728H25.4316H26.4316V5.448H25.4316ZM25.4316 7.728V8.728H33.1116V7.728V6.728H25.4316V7.728ZM33.1116 7.728H32.1116V11.52H33.1116H34.1116V7.728H33.1116ZM33.1116 11.52V10.52H25.4316V11.52V12.52H33.1116V11.52ZM25.4316 11.52H24.4316V14.04H25.4316H26.4316V11.52H25.4316ZM25.4316 14.04V15.04H34.5756V14.04V13.04H25.4316V14.04ZM34.5756 14.04H33.5756V18H34.5756H35.5756V14.04H34.5756ZM34.5756 18V17H20.1276V18V19H34.5756V18ZM20.1276 18H21.1276V1.488H20.1276H19.1276V18H20.1276ZM51.1279 3.048L50.4736 3.80426L50.4785 3.80846L51.1279 3.048ZM53.2639 8.28V9.28H54.2639V8.28H53.2639ZM48.1999 8.28H47.1999V9.28H48.1999V8.28ZM47.4319 6L46.6833 6.66303L46.6885 6.66894L46.6938 6.67477L47.4319 6ZM42.9199 6.168L42.1244 5.56196L42.1198 5.56802L42.1153 5.57415L42.9199 6.168ZM42.9199 13.32L42.1087 13.9048L42.1164 13.9155L42.1244 13.926L42.9199 13.32ZM47.5759 13.536L46.8688 12.8289L46.8688 12.8289L47.5759 13.536ZM48.3679 11.304V10.304H47.3679V11.304H48.3679ZM53.2639 11.304H54.2639V10.304H53.2639V11.304ZM51.1759 16.488L50.5229 15.7306L50.5186 15.7343L51.1759 16.488ZM38.9119 16.128L38.2048 16.8351L38.2087 16.839L38.9119 16.128ZM38.9119 3.36L38.2087 2.64899L38.2048 2.65289L38.9119 3.36ZM45.3199 1.2V2.2C47.6012 2.2 49.2801 2.77172 50.4736 3.80425L51.1279 3.048L51.7822 2.29175C50.1276 0.86028 47.9346 0.199999 45.3199 0.199999V1.2ZM51.1279 3.048L50.4785 3.80846C51.6328 4.79418 52.2639 6.23225 52.2639 8.28H53.2639H54.2639C54.2639 5.78375 53.4709 3.73382 51.7773 2.28754L51.1279 3.048ZM53.2639 8.28V7.28H48.1999V8.28V9.28H53.2639V8.28ZM48.1999 8.28H49.1999C49.1999 7.139 48.8917 6.11467 48.1699 5.32523L47.4319 6L46.6938 6.67477C46.9961 7.00532 47.1999 7.501 47.1999 8.28H48.1999ZM47.4319 6L48.1805 5.33697C47.4504 4.51268 46.4358 4.16 45.2959 4.16V5.16V6.16C46.012 6.16 46.4214 6.36732 46.6833 6.66303L47.4319 6ZM45.2959 5.16V4.16C44.0041 4.16 42.8753 4.57646 42.1244 5.56196L42.9199 6.168L43.7153 6.77404C43.9885 6.41554 44.4436 6.16 45.2959 6.16V5.16ZM42.9199 6.168L42.1153 5.57415C41.4477 6.47867 41.1759 7.6523 41.1759 8.976H42.1759H43.1759C43.1759 7.8997 43.4001 7.20133 43.7244 6.76185L42.9199 6.168ZM42.1759 8.976H41.1759V10.512H42.1759H43.1759V8.976H42.1759ZM42.1759 10.512H41.1759C41.1759 11.8251 41.4499 12.991 42.1087 13.9048L42.9199 13.32L43.7311 12.7352C43.3979 12.273 43.1759 11.5669 43.1759 10.512H42.1759ZM42.9199 13.32L42.1244 13.926C42.8694 14.9038 43.9759 15.328 45.2479 15.328V14.328V13.328C44.4398 13.328 43.9944 13.0802 43.7153 12.714L42.9199 13.32ZM45.2479 14.328V15.328C46.4364 15.328 47.5066 15.0195 48.283 14.2431L47.5759 13.536L46.8688 12.8289C46.5892 13.1085 46.1074 13.328 45.2479 13.328V14.328ZM47.5759 13.536L48.283 14.2431C49.048 13.4781 49.3679 12.4499 49.3679 11.304H48.3679H47.3679C47.3679 12.0781 47.1598 12.5379 46.8688 12.8289L47.5759 13.536ZM48.3679 11.304V12.304H53.2639V11.304V10.304H48.3679V11.304ZM53.2639 11.304H52.2639C52.2639 13.3411 51.6453 14.763 50.5229 15.7306L51.1759 16.488L51.8288 17.2454C53.4905 15.813 54.2639 13.7789 54.2639 11.304H53.2639ZM51.1759 16.488L50.5186 15.7343C49.3843 16.7236 47.6991 17.288 45.3199 17.288V18.288V19.288C47.9967 19.288 50.2155 18.6524 51.8331 17.2417L51.1759 16.488ZM45.3199 18.288V17.288C42.6664 17.288 40.8227 16.6114 39.6151 15.417L38.9119 16.128L38.2087 16.839C39.913 18.5246 42.3413 19.288 45.3199 19.288V18.288ZM38.9119 16.128L39.619 15.4209C38.4288 14.2307 37.7519 12.3983 37.7519 9.744H36.7519H35.7519C35.7519 12.7217 36.5149 15.1453 38.2048 16.8351L38.9119 16.128ZM36.7519 9.744H37.7519C37.7519 7.08971 38.4288 5.25725 39.619 4.06711L38.9119 3.36L38.2048 2.65289C36.5149 4.34275 35.7519 6.76629 35.7519 9.744H36.7519ZM38.9119 3.36L39.6151 4.071C40.8227 2.87663 42.6664 2.2 45.3199 2.2V1.2V0.199999C42.3413 0.199999 39.913 0.963365 38.2087 2.649L38.9119 3.36ZM67.2636 18H66.2636V19H67.2636V18ZM67.2636 11.736H68.2636V10.736H67.2636V11.736ZM61.4316 11.736V10.736H60.4316V11.736H61.4316ZM61.4316 18V19H62.4316V18H61.4316ZM56.1276 18H55.1276V19H56.1276V18ZM56.1276 1.488V0.487999H55.1276V1.488H56.1276ZM61.4316 1.488H62.4316V0.487999H61.4316V1.488ZM61.4316 7.512H60.4316V8.512H61.4316V7.512ZM67.2636 7.512V8.512H68.2636V7.512H67.2636ZM67.2636 1.488V0.487999H66.2636V1.488H67.2636ZM72.5676 1.488H73.5676V0.487999H72.5676V1.488ZM72.5676 18V19H73.5676V18H72.5676ZM67.2636 18H68.2636V11.736H67.2636H66.2636V18H67.2636ZM67.2636 11.736V10.736H61.4316V11.736V12.736H67.2636V11.736ZM61.4316 11.736H60.4316V18H61.4316H62.4316V11.736H61.4316ZM61.4316 18V17H56.1276V18V19H61.4316V18ZM56.1276 18H57.1276V1.488H56.1276H55.1276V18H56.1276ZM56.1276 1.488V2.488H61.4316V1.488V0.487999H56.1276V1.488ZM61.4316 1.488H60.4316V7.512H61.4316H62.4316V1.488H61.4316ZM61.4316 7.512V8.512H67.2636V7.512V6.512H61.4316V7.512ZM67.2636 7.512H68.2636V1.488H67.2636H66.2636V7.512H67.2636ZM67.2636 1.488V2.488H72.5676V1.488V0.487999H67.2636V1.488ZM72.5676 1.488H71.5676V18H72.5676H73.5676V1.488H72.5676ZM72.5676 18V17H67.2636V18V19H72.5676V18ZM95.9199 18L95.1637 18.6543L95.4628 19H95.9199V18ZM88.9839 9.984L89.7401 9.32967L87.9839 7.3V9.984H88.9839ZM88.9839 18V19H89.9839V18H88.9839ZM84.1119 18H83.1119V19H84.1119V18ZM84.1119 1.488V0.487999H83.1119V1.488H84.1119ZM88.7439 1.488L89.5049 0.839244L89.2055 0.487999H88.7439V1.488ZM95.6799 9.624L94.9189 10.2728L96.6799 12.3384V9.624H95.6799ZM95.6799 1.488V0.487999H94.6799V1.488H95.6799ZM100.552 1.488H101.552V0.487999H100.552V1.488ZM100.552 18V19H101.552V18H100.552ZM95.9199 18L96.6762 17.3457L89.7401 9.32967L88.9839 9.984L88.2277 10.6383L95.1637 18.6543L95.9199 18ZM88.9839 9.984H87.9839V18H88.9839H89.9839V9.984H88.9839ZM88.9839 18V17H84.1119V18V19H88.9839V18ZM84.1119 18H85.1119V1.488H84.1119H83.1119V18H84.1119ZM84.1119 1.488V2.488H88.7439V1.488V0.487999H84.1119V1.488ZM88.7439 1.488L87.9829 2.13675L94.9189 10.2728L95.6799 9.624L96.4409 8.97524L89.5049 0.839244L88.7439 1.488ZM95.6799 9.624H96.6799V1.488H95.6799H94.6799V9.624H95.6799ZM95.6799 1.488V2.488H100.552V1.488V0.487999H95.6799V1.488ZM100.552 1.488H99.5519V18H100.552H101.552V1.488H100.552ZM100.552 18V17H95.9199V18V19H100.552V18ZM104.104 1.488V0.487999H103.104V1.488H104.104ZM118.384 1.488H119.384V0.487999H118.384V1.488ZM118.384 5.448V6.448H119.384V5.448H118.384ZM109.408 5.448V4.448H108.408V5.448H109.408ZM109.408 7.728H108.408V8.728H109.408V7.728ZM117.088 7.728H118.088V6.728H117.088V7.728ZM117.088 11.52V12.52H118.088V11.52H117.088ZM109.408 11.52V10.52H108.408V11.52H109.408ZM109.408 14.04H108.408V15.04H109.408V14.04ZM118.552 14.04H119.552V13.04H118.552V14.04ZM118.552 18V19H119.552V18H118.552ZM104.104 18H103.104V19H104.104V18ZM104.104 1.488V2.488H118.384V1.488V0.487999H104.104V1.488ZM118.384 1.488H117.384V5.448H118.384H119.384V1.488H118.384ZM118.384 5.448V4.448H109.408V5.448V6.448H118.384V5.448ZM109.408 5.448H108.408V7.728H109.408H110.408V5.448H109.408ZM109.408 7.728V8.728H117.088V7.728V6.728H109.408V7.728ZM117.088 7.728H116.088V11.52H117.088H118.088V7.728H117.088ZM117.088 11.52V10.52H109.408V11.52V12.52H117.088V11.52ZM109.408 11.52H108.408V14.04H109.408H110.408V11.52H109.408ZM109.408 14.04V15.04H118.552V14.04V13.04H109.408V14.04ZM118.552 14.04H117.552V18H118.552H119.552V14.04H118.552ZM118.552 18V17H104.104V18V19H118.552V18ZM104.104 18H105.104V1.488H104.104H103.104V18H104.104ZM133.832 18L132.854 18.2078L133.023 19H133.832V18ZM131.696 7.944L132.675 7.73622L132.506 6.944H131.696V7.944ZM131.6 7.944V6.944H130.791L130.622 7.73622L131.6 7.944ZM129.464 18V19H130.274L130.443 18.2078L129.464 18ZM123.632 18L122.659 18.2279L122.839 19H123.632V18ZM119.768 1.488V0.487999H118.507L118.795 1.71586L119.768 1.488ZM125.288 1.488L126.269 1.28947L126.106 0.487999H125.288V1.488ZM127.184 10.848L126.204 11.0465L126.367 11.848H127.184V10.848ZM127.28 10.848V11.848H128.1L128.261 11.0441L127.28 10.848ZM129.152 1.488V0.487999H128.333L128.172 1.29188L129.152 1.488ZM134.384 1.488L135.363 1.27984L135.194 0.487999H134.384V1.488ZM136.376 10.848L135.398 11.0562L135.567 11.848H136.376V10.848ZM136.472 10.848V11.848H137.301L137.455 11.0344L136.472 10.848ZM138.248 1.488V0.487999H137.42L137.266 1.30158L138.248 1.488ZM143.528 1.488L144.502 1.71586L144.789 0.487999H143.528V1.488ZM139.664 18V19H140.457L140.638 18.2279L139.664 18ZM133.832 18L134.811 17.7922L132.675 7.73622L131.696 7.944L130.718 8.15177L132.854 18.2078L133.832 18ZM131.696 7.944V6.944H131.6V7.944V8.944H131.696V7.944ZM131.6 7.944L130.622 7.73622L128.486 17.7922L129.464 18L130.443 18.2078L132.579 8.15177L131.6 7.944ZM129.464 18V17H123.632V18V19H129.464V18ZM123.632 18L124.606 17.7721L120.742 1.26014L119.768 1.488L118.795 1.71586L122.659 18.2279L123.632 18ZM119.768 1.488V2.488H125.288V1.488V0.487999H119.768V1.488ZM125.288 1.488L124.308 1.68653L126.204 11.0465L127.184 10.848L128.165 10.6495L126.269 1.28947L125.288 1.488ZM127.184 10.848V11.848H127.28V10.848V9.848H127.184V10.848ZM127.28 10.848L128.261 11.0441L130.133 1.68412L129.152 1.488L128.172 1.29188L126.3 10.6519L127.28 10.848ZM129.152 1.488V2.488H134.384V1.488V0.487999H129.152V1.488ZM134.384 1.488L133.406 1.69616L135.398 11.0562L136.376 10.848L137.355 10.6398L135.363 1.27984L134.384 1.488ZM136.376 10.848V11.848H136.472V10.848V9.848H136.376V10.848ZM136.472 10.848L137.455 11.0344L139.231 1.67442L138.248 1.488L137.266 1.30158L135.49 10.6616L136.472 10.848ZM138.248 1.488V2.488H143.528V1.488V0.487999H138.248V1.488ZM143.528 1.488L142.555 1.26014L138.691 17.7721L139.664 18L140.638 18.2279L144.502 1.71586L143.528 1.488ZM139.664 18V17H133.832V18V19H139.664V18ZM157.568 2.496L157.032 3.3401L157.039 3.34456L157.568 2.496ZM159.656 6.288H160.656V6.27848L160.656 6.26895L159.656 6.288ZM159.656 6.576V7.576H160.656V6.576H159.656ZM154.688 6.576H153.688V7.576H154.688V6.576ZM154.16 5.28L154.833 4.54006L154.833 4.54006L154.16 5.28ZM150.92 5.112L150.444 4.23271L150.436 4.237L150.428 4.24144L150.92 5.112ZM151.136 6.84L151.513 5.91353L151.513 5.91353L151.136 6.84ZM153.608 7.488L153.809 6.50831L153.802 6.50689L153.608 7.488ZM156.872 8.352L156.535 9.29334L156.546 9.29713L156.556 9.30068L156.872 8.352ZM160.112 12.528H161.113L161.112 12.5141L160.112 12.528ZM158.12 16.872L157.541 16.0569L157.536 16.0603L158.12 16.872ZM146.816 16.992L146.298 17.847L146.302 17.8495L146.816 16.992ZM144.68 12.408V11.408H143.68V12.408H144.68ZM149.696 12.408H150.696V11.408H149.696V12.408ZM150.344 14.088L149.79 14.9201L149.801 14.9273L149.812 14.9342L150.344 14.088ZM154.016 14.28L153.71 13.3279L153.7 13.3313L154.016 14.28ZM153.944 12.504L153.547 13.4216L153.565 13.4294L153.583 13.4366L153.944 12.504ZM151.568 11.856L151.359 12.8339L151.37 12.836L151.568 11.856ZM148.232 10.968L147.891 11.9078L147.898 11.9106L147.906 11.9132L148.232 10.968ZM145.928 9.408L145.189 10.0815L145.189 10.0815L145.928 9.408ZM147.032 2.496L147.553 3.35001L147.555 3.34832L147.032 2.496ZM152.36 1.2V2.2C154.34 2.2 155.875 2.60506 157.032 3.34007L157.568 2.496L158.105 1.65193C156.542 0.658942 154.604 0.199999 152.36 0.199999V1.2ZM157.568 2.496L157.039 3.34456C158.096 4.00334 158.631 4.94571 158.657 6.30704L159.656 6.288L160.656 6.26895C160.618 4.27029 159.761 2.68466 158.098 1.64744L157.568 2.496ZM159.656 6.288H158.656V6.576H159.656H160.656V6.288H159.656ZM159.656 6.576V5.576H154.688V6.576V7.576H159.656V6.576ZM154.688 6.576H155.688V6.48H154.688H153.688V6.576H154.688ZM154.688 6.48H155.688C155.688 5.72115 155.396 5.05152 154.833 4.54006L154.16 5.28L153.488 6.01994C153.629 6.14848 153.688 6.27884 153.688 6.48H154.688ZM154.16 5.28L154.833 4.54006C154.222 3.98473 153.397 3.8 152.552 3.8V4.8V5.8C153.148 5.8 153.395 5.93527 153.488 6.01994L154.16 5.28ZM152.552 4.8V3.8C151.773 3.8 151.038 3.9112 150.444 4.23271L150.92 5.112L151.397 5.99129C151.571 5.8968 151.924 5.8 152.552 5.8V4.8ZM150.92 5.112L150.428 4.24144C149.884 4.54889 149.368 5.08093 149.368 5.88H150.368H151.368C151.368 5.90667 151.364 5.93925 151.353 5.97315C151.342 6.0067 151.328 6.0305 151.318 6.04364C151.31 6.05584 151.308 6.05458 151.322 6.04249C151.337 6.03017 151.365 6.0093 151.412 5.98256L150.92 5.112ZM150.368 5.88H149.368C149.368 6.30983 149.502 6.72131 149.78 7.0687C150.045 7.40074 150.399 7.61965 150.76 7.76647L151.136 6.84L151.513 5.91353C151.362 5.85234 151.332 5.80726 151.341 5.8193C151.347 5.82684 151.357 5.84161 151.363 5.86074C151.369 5.87921 151.368 5.88797 151.368 5.88H150.368ZM151.136 6.84L150.76 7.76647C151.366 8.01254 152.269 8.24311 153.415 8.46911L153.608 7.488L153.802 6.50689C152.676 6.28489 151.931 6.08346 151.513 5.91353L151.136 6.84ZM153.608 7.488L153.408 8.46766C154.71 8.73438 155.748 9.01116 156.535 9.29334L156.872 8.352L157.21 7.41066C156.301 7.08484 155.163 6.78561 153.809 6.50834L153.608 7.488ZM156.872 8.352L156.556 9.30068C157.262 9.53597 157.875 9.92571 158.404 10.4817L159.128 9.792L159.853 9.10234C159.102 8.31429 158.211 7.74403 157.189 7.40332L156.872 8.352ZM159.128 9.792L158.404 10.4817C158.831 10.9298 159.099 11.5782 159.113 12.5419L160.112 12.528L161.112 12.5141C161.094 11.1738 160.706 9.99821 159.853 9.10234L159.128 9.792ZM160.112 12.528H159.112C159.112 14.2291 158.551 15.3391 157.541 16.0569L158.12 16.872L158.7 17.6871C160.346 16.5169 161.112 14.7309 161.112 12.528H160.112ZM158.12 16.872L157.536 16.0603C156.447 16.8443 154.914 17.288 152.84 17.288V18.288V19.288C155.183 19.288 157.17 18.7877 158.704 17.6837L158.12 16.872ZM152.84 18.288V17.288C150.357 17.288 148.554 16.8681 147.331 16.1345L146.816 16.992L146.302 17.8495C147.959 18.8439 150.172 19.288 152.84 19.288V18.288ZM146.816 16.992L147.335 16.1371C146.303 15.511 145.68 14.3757 145.68 12.408H144.68H143.68C143.68 14.8243 144.482 16.745 146.298 17.8469L146.816 16.992ZM144.68 12.408V13.408H149.696V12.408V11.408H144.68V12.408ZM149.696 12.408H148.696C148.696 13.367 148.943 14.3553 149.79 14.9201L150.344 14.088L150.899 13.2559C150.882 13.2447 150.696 13.113 150.696 12.408H149.696ZM150.344 14.088L149.812 14.9342C150.485 15.3583 151.388 15.496 152.36 15.496V14.496V13.496C151.508 13.496 151.068 13.3617 150.877 13.2418L150.344 14.088ZM152.36 14.496V15.496C153.094 15.496 153.763 15.4187 154.333 15.2287L154.016 14.28L153.7 13.3313C153.406 13.4293 152.971 13.496 152.36 13.496V14.496ZM154.016 14.28L154.322 15.232C154.69 15.114 155.052 14.9045 155.318 14.5534C155.587 14.1981 155.688 13.7875 155.688 13.392H154.688H153.688C153.688 13.421 153.685 13.4248 153.689 13.4112C153.694 13.3958 153.704 13.3716 153.723 13.3466C153.742 13.3219 153.759 13.3096 153.763 13.3069C153.765 13.3052 153.751 13.3148 153.71 13.328L154.016 14.28ZM154.688 13.392H155.688C155.688 12.9663 155.55 12.5627 155.269 12.2278C155.003 11.9106 154.654 11.7065 154.305 11.5714L153.944 12.504L153.583 13.4366C153.654 13.4639 153.698 13.488 153.721 13.5037C153.745 13.519 153.745 13.5236 153.736 13.5122C153.725 13.4994 153.711 13.477 153.7 13.4472C153.69 13.4178 153.688 13.3969 153.688 13.392H154.688ZM153.944 12.504L154.342 11.5864C153.76 11.3341 152.88 11.1017 151.767 10.876L151.568 11.856L151.37 12.836C152.465 13.0583 153.169 13.2579 153.547 13.4216L153.944 12.504ZM151.568 11.856L151.778 10.8782C150.457 10.5951 149.387 10.309 148.559 10.0228L148.232 10.968L147.906 11.9132C148.838 12.235 149.992 12.5409 151.359 12.8338L151.568 11.856ZM148.232 10.968L148.574 10.0282C147.852 9.76576 147.219 9.33987 146.668 8.73451L145.928 9.408L145.189 10.0815C145.95 10.9161 146.852 11.5302 147.891 11.9078L148.232 10.968ZM145.928 9.408L146.668 8.73451C146.22 8.2437 145.944 7.53131 145.944 6.48H144.944H143.944C143.944 7.89269 144.324 9.1323 145.189 10.0815L145.928 9.408ZM144.944 6.48H145.944C145.944 4.97524 146.496 3.99397 147.553 3.35001L147.032 2.496L146.512 1.64199C144.785 2.69403 143.944 4.36876 143.944 6.48H144.944ZM147.032 2.496L147.555 3.34832C148.766 2.60567 150.347 2.2 152.36 2.2V1.2V0.199999C150.086 0.199999 148.115 0.658326 146.509 1.64368L147.032 2.496Z" fill="black" mask="url(#path-1-outside-1_4109_367)"/>
<path d="M12.3113 5.712V4.712H11.3113V5.712H12.3113ZM12.3113 18V19H13.3113V18H12.3113ZM7.00725 18H6.00725V19H7.00725V18ZM7.00725 5.712H8.00725V4.712H7.00725V5.712ZM1.58325 5.712H0.58325V6.712H1.58325V5.712ZM1.58325 1.488V0.487999H0.58325V1.488H1.58325ZM17.7113 1.488H18.7113V0.487999H17.7113V1.488ZM17.7113 5.712V6.712H18.7113V5.712H17.7113ZM12.3113 5.712H11.3113V18H12.3113H13.3113V5.712H12.3113ZM12.3113 18V17H7.00725V18V19H12.3113V18ZM7.00725 18H8.00725V5.712H7.00725H6.00725V18H7.00725ZM7.00725 5.712V4.712H1.58325V5.712V6.712H7.00725V5.712ZM1.58325 5.712H2.58325V1.488H1.58325H0.58325V5.712H1.58325ZM1.58325 1.488V2.488H17.7113V1.488V0.487999H1.58325V1.488ZM17.7113 1.488H16.7113V5.712H17.7113H18.7113V1.488H17.7113ZM17.7113 5.712V4.712H12.3113V5.712V6.712H17.7113V5.712ZM20.1276 1.488V0.487999H19.1276V1.488H20.1276ZM34.4076 1.488H35.4076V0.487999H34.4076V1.488ZM34.4076 5.448V6.448H35.4076V5.448H34.4076ZM25.4316 5.448V4.448H24.4316V5.448H25.4316ZM25.4316 7.728H24.4316V8.728H25.4316V7.728ZM33.1116 7.728H34.1116V6.728H33.1116V7.728ZM33.1116 11.52V12.52H34.1116V11.52H33.1116ZM25.4316 11.52V10.52H24.4316V11.52H25.4316ZM25.4316 14.04H24.4316V15.04H25.4316V14.04ZM34.5756 14.04H35.5756V13.04H34.5756V14.04ZM34.5756 18V19H35.5756V18H34.5756ZM20.1276 18H19.1276V19H20.1276V18ZM20.1276 1.488V2.488H34.4076V1.488V0.487999H20.1276V1.488ZM34.4076 1.488H33.4076V5.448H34.4076H35.4076V1.488H34.4076ZM34.4076 5.448V4.448H25.4316V5.448V6.448H34.4076V5.448ZM25.4316 5.448H24.4316V7.728H25.4316H26.4316V5.448H25.4316ZM25.4316 7.728V8.728H33.1116V7.728V6.728H25.4316V7.728ZM33.1116 7.728H32.1116V11.52H33.1116H34.1116V7.728H33.1116ZM33.1116 11.52V10.52H25.4316V11.52V12.52H33.1116V11.52ZM25.4316 11.52H24.4316V14.04H25.4316H26.4316V11.52H25.4316ZM25.4316 14.04V15.04H34.5756V14.04V13.04H25.4316V14.04ZM34.5756 14.04H33.5756V18H34.5756H35.5756V14.04H34.5756ZM34.5756 18V17H20.1276V18V19H34.5756V18ZM20.1276 18H21.1276V1.488H20.1276H19.1276V18H20.1276ZM51.1279 3.048L50.4736 3.80426L50.4785 3.80846L51.1279 3.048ZM53.2639 8.28V9.28H54.2639V8.28H53.2639ZM48.1999 8.28H47.1999V9.28H48.1999V8.28ZM47.4319 6L46.6833 6.66303L46.6885 6.66894L46.6938 6.67477L47.4319 6ZM42.9199 6.168L42.1244 5.56196L42.1198 5.56802L42.1153 5.57415L42.9199 6.168ZM42.9199 13.32L42.1087 13.9048L42.1164 13.9155L42.1244 13.926L42.9199 13.32ZM47.5759 13.536L46.8688 12.8289L46.8688 12.8289L47.5759 13.536ZM48.3679 11.304V10.304H47.3679V11.304H48.3679ZM53.2639 11.304H54.2639V10.304H53.2639V11.304ZM51.1759 16.488L50.5229 15.7306L50.5186 15.7343L51.1759 16.488ZM38.9119 16.128L38.2048 16.8351L38.2087 16.839L38.9119 16.128ZM38.9119 3.36L38.2087 2.64899L38.2048 2.65289L38.9119 3.36ZM45.3199 1.2V2.2C47.6012 2.2 49.2801 2.77172 50.4736 3.80425L51.1279 3.048L51.7822 2.29175C50.1276 0.86028 47.9346 0.199999 45.3199 0.199999V1.2ZM51.1279 3.048L50.4785 3.80846C51.6328 4.79418 52.2639 6.23225 52.2639 8.28H53.2639H54.2639C54.2639 5.78375 53.4709 3.73382 51.7773 2.28754L51.1279 3.048ZM53.2639 8.28V7.28H48.1999V8.28V9.28H53.2639V8.28ZM48.1999 8.28H49.1999C49.1999 7.139 48.8917 6.11467 48.1699 5.32523L47.4319 6L46.6938 6.67477C46.9961 7.00532 47.1999 7.501 47.1999 8.28H48.1999ZM47.4319 6L48.1805 5.33697C47.4504 4.51268 46.4358 4.16 45.2959 4.16V5.16V6.16C46.012 6.16 46.4214 6.36732 46.6833 6.66303L47.4319 6ZM45.2959 5.16V4.16C44.0041 4.16 42.8753 4.57646 42.1244 5.56196L42.9199 6.168L43.7153 6.77404C43.9885 6.41554 44.4436 6.16 45.2959 6.16V5.16ZM42.9199 6.168L42.1153 5.57415C41.4477 6.47867 41.1759 7.6523 41.1759 8.976H42.1759H43.1759C43.1759 7.8997 43.4001 7.20133 43.7244 6.76185L42.9199 6.168ZM42.1759 8.976H41.1759V10.512H42.1759H43.1759V8.976H42.1759ZM42.1759 10.512H41.1759C41.1759 11.8251 41.4499 12.991 42.1087 13.9048L42.9199 13.32L43.7311 12.7352C43.3979 12.273 43.1759 11.5669 43.1759 10.512H42.1759ZM42.9199 13.32L42.1244 13.926C42.8694 14.9038 43.9759 15.328 45.2479 15.328V14.328V13.328C44.4398 13.328 43.9944 13.0802 43.7153 12.714L42.9199 13.32ZM45.2479 14.328V15.328C46.4364 15.328 47.5066 15.0195 48.283 14.2431L47.5759 13.536L46.8688 12.8289C46.5892 13.1085 46.1074 13.328 45.2479 13.328V14.328ZM47.5759 13.536L48.283 14.2431C49.048 13.4781 49.3679 12.4499 49.3679 11.304H48.3679H47.3679C47.3679 12.0781 47.1598 12.5379 46.8688 12.8289L47.5759 13.536ZM48.3679 11.304V12.304H53.2639V11.304V10.304H48.3679V11.304ZM53.2639 11.304H52.2639C52.2639 13.3411 51.6453 14.763 50.5229 15.7306L51.1759 16.488L51.8288 17.2454C53.4905 15.813 54.2639 13.7789 54.2639 11.304H53.2639ZM51.1759 16.488L50.5186 15.7343C49.3843 16.7236 47.6991 17.288 45.3199 17.288V18.288V19.288C47.9967 19.288 50.2155 18.6524 51.8331 17.2417L51.1759 16.488ZM45.3199 18.288V17.288C42.6664 17.288 40.8227 16.6114 39.6151 15.417L38.9119 16.128L38.2087 16.839C39.913 18.5246 42.3413 19.288 45.3199 19.288V18.288ZM38.9119 16.128L39.619 15.4209C38.4288 14.2307 37.7519 12.3983 37.7519 9.744H36.7519H35.7519C35.7519 12.7217 36.5149 15.1453 38.2048 16.8351L38.9119 16.128ZM36.7519 9.744H37.7519C37.7519 7.08971 38.4288 5.25725 39.619 4.06711L38.9119 3.36L38.2048 2.65289C36.5149 4.34275 35.7519 6.76629 35.7519 9.744H36.7519ZM38.9119 3.36L39.6151 4.071C40.8227 2.87663 42.6664 2.2 45.3199 2.2V1.2V0.199999C42.3413 0.199999 39.913 0.963365 38.2087 2.649L38.9119 3.36ZM67.2636 18H66.2636V19H67.2636V18ZM67.2636 11.736H68.2636V10.736H67.2636V11.736ZM61.4316 11.736V10.736H60.4316V11.736H61.4316ZM61.4316 18V19H62.4316V18H61.4316ZM56.1276 18H55.1276V19H56.1276V18ZM56.1276 1.488V0.487999H55.1276V1.488H56.1276ZM61.4316 1.488H62.4316V0.487999H61.4316V1.488ZM61.4316 7.512H60.4316V8.512H61.4316V7.512ZM67.2636 7.512V8.512H68.2636V7.512H67.2636ZM67.2636 1.488V0.487999H66.2636V1.488H67.2636ZM72.5676 1.488H73.5676V0.487999H72.5676V1.488ZM72.5676 18V19H73.5676V18H72.5676ZM67.2636 18H68.2636V11.736H67.2636H66.2636V18H67.2636ZM67.2636 11.736V10.736H61.4316V11.736V12.736H67.2636V11.736ZM61.4316 11.736H60.4316V18H61.4316H62.4316V11.736H61.4316ZM61.4316 18V17H56.1276V18V19H61.4316V18ZM56.1276 18H57.1276V1.488H56.1276H55.1276V18H56.1276ZM56.1276 1.488V2.488H61.4316V1.488V0.487999H56.1276V1.488ZM61.4316 1.488H60.4316V7.512H61.4316H62.4316V1.488H61.4316ZM61.4316 7.512V8.512H67.2636V7.512V6.512H61.4316V7.512ZM67.2636 7.512H68.2636V1.488H67.2636H66.2636V7.512H67.2636ZM67.2636 1.488V2.488H72.5676V1.488V0.487999H67.2636V1.488ZM72.5676 1.488H71.5676V18H72.5676H73.5676V1.488H72.5676ZM72.5676 18V17H67.2636V18V19H72.5676V18ZM95.9199 18L95.1637 18.6543L95.4628 19H95.9199V18ZM88.9839 9.984L89.7401 9.32967L87.9839 7.3V9.984H88.9839ZM88.9839 18V19H89.9839V18H88.9839ZM84.1119 18H83.1119V19H84.1119V18ZM84.1119 1.488V0.487999H83.1119V1.488H84.1119ZM88.7439 1.488L89.5049 0.839244L89.2055 0.487999H88.7439V1.488ZM95.6799 9.624L94.9189 10.2728L96.6799 12.3384V9.624H95.6799ZM95.6799 1.488V0.487999H94.6799V1.488H95.6799ZM100.552 1.488H101.552V0.487999H100.552V1.488ZM100.552 18V19H101.552V18H100.552ZM95.9199 18L96.6762 17.3457L89.7401 9.32967L88.9839 9.984L88.2277 10.6383L95.1637 18.6543L95.9199 18ZM88.9839 9.984H87.9839V18H88.9839H89.9839V9.984H88.9839ZM88.9839 18V17H84.1119V18V19H88.9839V18ZM84.1119 18H85.1119V1.488H84.1119H83.1119V18H84.1119ZM84.1119 1.488V2.488H88.7439V1.488V0.487999H84.1119V1.488ZM88.7439 1.488L87.9829 2.13675L94.9189 10.2728L95.6799 9.624L96.4409 8.97524L89.5049 0.839244L88.7439 1.488ZM95.6799 9.624H96.6799V1.488H95.6799H94.6799V9.624H95.6799ZM95.6799 1.488V2.488H100.552V1.488V0.487999H95.6799V1.488ZM100.552 1.488H99.5519V18H100.552H101.552V1.488H100.552ZM100.552 18V17H95.9199V18V19H100.552V18ZM104.104 1.488V0.487999H103.104V1.488H104.104ZM118.384 1.488H119.384V0.487999H118.384V1.488ZM118.384 5.448V6.448H119.384V5.448H118.384ZM109.408 5.448V4.448H108.408V5.448H109.408ZM109.408 7.728H108.408V8.728H109.408V7.728ZM117.088 7.728H118.088V6.728H117.088V7.728ZM117.088 11.52V12.52H118.088V11.52H117.088ZM109.408 11.52V10.52H108.408V11.52H109.408ZM109.408 14.04H108.408V15.04H109.408V14.04ZM118.552 14.04H119.552V13.04H118.552V14.04ZM118.552 18V19H119.552V18H118.552ZM104.104 18H103.104V19H104.104V18ZM104.104 1.488V2.488H118.384V1.488V0.487999H104.104V1.488ZM118.384 1.488H117.384V5.448H118.384H119.384V1.488H118.384ZM118.384 5.448V4.448H109.408V5.448V6.448H118.384V5.448ZM109.408 5.448H108.408V7.728H109.408H110.408V5.448H109.408ZM109.408 7.728V8.728H117.088V7.728V6.728H109.408V7.728ZM117.088 7.728H116.088V11.52H117.088H118.088V7.728H117.088ZM117.088 11.52V10.52H109.408V11.52V12.52H117.088V11.52ZM109.408 11.52H108.408V14.04H109.408H110.408V11.52H109.408ZM109.408 14.04V15.04H118.552V14.04V13.04H109.408V14.04ZM118.552 14.04H117.552V18H118.552H119.552V14.04H118.552ZM118.552 18V17H104.104V18V19H118.552V18ZM104.104 18H105.104V1.488H104.104H103.104V18H104.104ZM133.832 18L132.854 18.2078L133.023 19H133.832V18ZM131.696 7.944L132.675 7.73622L132.506 6.944H131.696V7.944ZM131.6 7.944V6.944H130.791L130.622 7.73622L131.6 7.944ZM129.464 18V19H130.274L130.443 18.2078L129.464 18ZM123.632 18L122.659 18.2279L122.839 19H123.632V18ZM119.768 1.488V0.487999H118.507L118.795 1.71586L119.768 1.488ZM125.288 1.488L126.269 1.28947L126.106 0.487999H125.288V1.488ZM127.184 10.848L126.204 11.0465L126.367 11.848H127.184V10.848ZM127.28 10.848V11.848H128.1L128.261 11.0441L127.28 10.848ZM129.152 1.488V0.487999H128.333L128.172 1.29188L129.152 1.488ZM134.384 1.488L135.363 1.27984L135.194 0.487999H134.384V1.488ZM136.376 10.848L135.398 11.0562L135.567 11.848H136.376V10.848ZM136.472 10.848V11.848H137.301L137.455 11.0344L136.472 10.848ZM138.248 1.488V0.487999H137.42L137.266 1.30158L138.248 1.488ZM143.528 1.488L144.502 1.71586L144.789 0.487999H143.528V1.488ZM139.664 18V19H140.457L140.638 18.2279L139.664 18ZM133.832 18L134.811 17.7922L132.675 7.73622L131.696 7.944L130.718 8.15177L132.854 18.2078L133.832 18ZM131.696 7.944V6.944H131.6V7.944V8.944H131.696V7.944ZM131.6 7.944L130.622 7.73622L128.486 17.7922L129.464 18L130.443 18.2078L132.579 8.15177L131.6 7.944ZM129.464 18V17H123.632V18V19H129.464V18ZM123.632 18L124.606 17.7721L120.742 1.26014L119.768 1.488L118.795 1.71586L122.659 18.2279L123.632 18ZM119.768 1.488V2.488H125.288V1.488V0.487999H119.768V1.488ZM125.288 1.488L124.308 1.68653L126.204 11.0465L127.184 10.848L128.165 10.6495L126.269 1.28947L125.288 1.488ZM127.184 10.848V11.848H127.28V10.848V9.848H127.184V10.848ZM127.28 10.848L128.261 11.0441L130.133 1.68412L129.152 1.488L128.172 1.29188L126.3 10.6519L127.28 10.848ZM129.152 1.488V2.488H134.384V1.488V0.487999H129.152V1.488ZM134.384 1.488L133.406 1.69616L135.398 11.0562L136.376 10.848L137.355 10.6398L135.363 1.27984L134.384 1.488ZM136.376 10.848V11.848H136.472V10.848V9.848H136.376V10.848ZM136.472 10.848L137.455 11.0344L139.231 1.67442L138.248 1.488L137.266 1.30158L135.49 10.6616L136.472 10.848ZM138.248 1.488V2.488H143.528V1.488V0.487999H138.248V1.488ZM143.528 1.488L142.555 1.26014L138.691 17.7721L139.664 18L140.638 18.2279L144.502 1.71586L143.528 1.488ZM139.664 18V17H133.832V18V19H139.664V18ZM157.568 2.496L157.032 3.3401L157.039 3.34456L157.568 2.496ZM159.656 6.288H160.656V6.27848L160.656 6.26895L159.656 6.288ZM159.656 6.576V7.576H160.656V6.576H159.656ZM154.688 6.576H153.688V7.576H154.688V6.576ZM154.16 5.28L154.833 4.54006L154.833 4.54006L154.16 5.28ZM150.92 5.112L150.444 4.23271L150.436 4.237L150.428 4.24144L150.92 5.112ZM151.136 6.84L151.513 5.91353L151.513 5.91353L151.136 6.84ZM153.608 7.488L153.809 6.50831L153.802 6.50689L153.608 7.488ZM156.872 8.352L156.535 9.29334L156.546 9.29713L156.556 9.30068L156.872 8.352ZM160.112 12.528H161.113L161.112 12.5141L160.112 12.528ZM158.12 16.872L157.541 16.0569L157.536 16.0603L158.12 16.872ZM146.816 16.992L146.298 17.847L146.302 17.8495L146.816 16.992ZM144.68 12.408V11.408H143.68V12.408H144.68ZM149.696 12.408H150.696V11.408H149.696V12.408ZM150.344 14.088L149.79 14.9201L149.801 14.9273L149.812 14.9342L150.344 14.088ZM154.016 14.28L153.71 13.3279L153.7 13.3313L154.016 14.28ZM153.944 12.504L153.547 13.4216L153.565 13.4294L153.583 13.4366L153.944 12.504ZM151.568 11.856L151.359 12.8339L151.37 12.836L151.568 11.856ZM148.232 10.968L147.891 11.9078L147.898 11.9106L147.906 11.9132L148.232 10.968ZM145.928 9.408L145.189 10.0815L145.189 10.0815L145.928 9.408ZM147.032 2.496L147.553 3.35001L147.555 3.34832L147.032 2.496ZM152.36 1.2V2.2C154.34 2.2 155.875 2.60506 157.032 3.34007L157.568 2.496L158.105 1.65193C156.542 0.658942 154.604 0.199999 152.36 0.199999V1.2ZM157.568 2.496L157.039 3.34456C158.096 4.00334 158.631 4.94571 158.657 6.30704L159.656 6.288L160.656 6.26895C160.618 4.27029 159.761 2.68466 158.098 1.64744L157.568 2.496ZM159.656 6.288H158.656V6.576H159.656H160.656V6.288H159.656ZM159.656 6.576V5.576H154.688V6.576V7.576H159.656V6.576ZM154.688 6.576H155.688V6.48H154.688H153.688V6.576H154.688ZM154.688 6.48H155.688C155.688 5.72115 155.396 5.05152 154.833 4.54006L154.16 5.28L153.488 6.01994C153.629 6.14848 153.688 6.27884 153.688 6.48H154.688ZM154.16 5.28L154.833 4.54006C154.222 3.98473 153.397 3.8 152.552 3.8V4.8V5.8C153.148 5.8 153.395 5.93527 153.488 6.01994L154.16 5.28ZM152.552 4.8V3.8C151.773 3.8 151.038 3.9112 150.444 4.23271L150.92 5.112L151.397 5.99129C151.571 5.8968 151.924 5.8 152.552 5.8V4.8ZM150.92 5.112L150.428 4.24144C149.884 4.54889 149.368 5.08093 149.368 5.88H150.368H151.368C151.368 5.90667 151.364 5.93925 151.353 5.97315C151.342 6.0067 151.328 6.0305 151.318 6.04364C151.31 6.05584 151.308 6.05458 151.322 6.04249C151.337 6.03017 151.365 6.0093 151.412 5.98256L150.92 5.112ZM150.368 5.88H149.368C149.368 6.30983 149.502 6.72131 149.78 7.0687C150.045 7.40074 150.399 7.61965 150.76 7.76647L151.136 6.84L151.513 5.91353C151.362 5.85234 151.332 5.80726 151.341 5.8193C151.347 5.82684 151.357 5.84161 151.363 5.86074C151.369 5.87921 151.368 5.88797 151.368 5.88H150.368ZM151.136 6.84L150.76 7.76647C151.366 8.01254 152.269 8.24311 153.415 8.46911L153.608 7.488L153.802 6.50689C152.676 6.28489 151.931 6.08346 151.513 5.91353L151.136 6.84ZM153.608 7.488L153.408 8.46766C154.71 8.73438 155.748 9.01116 156.535 9.29334L156.872 8.352L157.21 7.41066C156.301 7.08484 155.163 6.78561 153.809 6.50834L153.608 7.488ZM156.872 8.352L156.556 9.30068C157.262 9.53597 157.875 9.92571 158.404 10.4817L159.128 9.792L159.853 9.10234C159.102 8.31429 158.211 7.74403 157.189 7.40332L156.872 8.352ZM159.128 9.792L158.404 10.4817C158.831 10.9298 159.099 11.5782 159.113 12.5419L160.112 12.528L161.112 12.5141C161.094 11.1738 160.706 9.99821 159.853 9.10234L159.128 9.792ZM160.112 12.528H159.112C159.112 14.2291 158.551 15.3391 157.541 16.0569L158.12 16.872L158.7 17.6871C160.346 16.5169 161.112 14.7309 161.112 12.528H160.112ZM158.12 16.872L157.536 16.0603C156.447 16.8443 154.914 17.288 152.84 17.288V18.288V19.288C155.183 19.288 157.17 18.7877 158.704 17.6837L158.12 16.872ZM152.84 18.288V17.288C150.357 17.288 148.554 16.8681 147.331 16.1345L146.816 16.992L146.302 17.8495C147.959 18.8439 150.172 19.288 152.84 19.288V18.288ZM146.816 16.992L147.335 16.1371C146.303 15.511 145.68 14.3757 145.68 12.408H144.68H143.68C143.68 14.8243 144.482 16.745 146.298 17.8469L146.816 16.992ZM144.68 12.408V13.408H149.696V12.408V11.408H144.68V12.408ZM149.696 12.408H148.696C148.696 13.367 148.943 14.3553 149.79 14.9201L150.344 14.088L150.899 13.2559C150.882 13.2447 150.696 13.113 150.696 12.408H149.696ZM150.344 14.088L149.812 14.9342C150.485 15.3583 151.388 15.496 152.36 15.496V14.496V13.496C151.508 13.496 151.068 13.3617 150.877 13.2418L150.344 14.088ZM152.36 14.496V15.496C153.094 15.496 153.763 15.4187 154.333 15.2287L154.016 14.28L153.7 13.3313C153.406 13.4293 152.971 13.496 152.36 13.496V14.496ZM154.016 14.28L154.322 15.232C154.69 15.114 155.052 14.9045 155.318 14.5534C155.587 14.1981 155.688 13.7875 155.688 13.392H154.688H153.688C153.688 13.421 153.685 13.4248 153.689 13.4112C153.694 13.3958 153.704 13.3716 153.723 13.3466C153.742 13.3219 153.759 13.3096 153.763 13.3069C153.765 13.3052 153.751 13.3148 153.71 13.328L154.016 14.28ZM154.688 13.392H155.688C155.688 12.9663 155.55 12.5627 155.269 12.2278C155.003 11.9106 154.654 11.7065 154.305 11.5714L153.944 12.504L153.583 13.4366C153.654 13.4639 153.698 13.488 153.721 13.5037C153.745 13.519 153.745 13.5236 153.736 13.5122C153.725 13.4994 153.711 13.477 153.7 13.4472C153.69 13.4178 153.688 13.3969 153.688 13.392H154.688ZM153.944 12.504L154.342 11.5864C153.76 11.3341 152.88 11.1017 151.767 10.876L151.568 11.856L151.37 12.836C152.465 13.0583 153.169 13.2579 153.547 13.4216L153.944 12.504ZM151.568 11.856L151.778 10.8782C150.457 10.5951 149.387 10.309 148.559 10.0228L148.232 10.968L147.906 11.9132C148.838 12.235 149.992 12.5409 151.359 12.8338L151.568 11.856ZM148.232 10.968L148.574 10.0282C147.852 9.76576 147.219 9.33987 146.668 8.73451L145.928 9.408L145.189 10.0815C145.95 10.9161 146.852 11.5302 147.891 11.9078L148.232 10.968ZM145.928 9.408L146.668 8.73451C146.22 8.2437 145.944 7.53131 145.944 6.48H144.944H143.944C143.944 7.89269 144.324 9.1323 145.189 10.0815L145.928 9.408ZM144.944 6.48H145.944C145.944 4.97524 146.496 3.99397 147.553 3.35001L147.032 2.496L146.512 1.64199C144.785 2.69403 143.944 4.36876 143.944 6.48H144.944ZM147.032 2.496L147.555 3.34832C148.766 2.60567 150.347 2.2 152.36 2.2V1.2V0.199999C150.086 0.199999 148.115 0.658326 146.509 1.64368L147.032 2.496Z" fill="black" fill-opacity="0.2" mask="url(#path-1-outside-1_4109_367)"/>
<path d="M12.3113 5.712V4.712H11.3113V5.712H12.3113ZM12.3113 18V19H13.3113V18H12.3113ZM7.00725 18H6.00725V19H7.00725V18ZM7.00725 5.712H8.00725V4.712H7.00725V5.712ZM1.58325 5.712H0.58325V6.712H1.58325V5.712ZM1.58325 1.488V0.487999H0.58325V1.488H1.58325ZM17.7113 1.488H18.7113V0.487999H17.7113V1.488ZM17.7113 5.712V6.712H18.7113V5.712H17.7113ZM12.3113 5.712H11.3113V18H12.3113H13.3113V5.712H12.3113ZM12.3113 18V17H7.00725V18V19H12.3113V18ZM7.00725 18H8.00725V5.712H7.00725H6.00725V18H7.00725ZM7.00725 5.712V4.712H1.58325V5.712V6.712H7.00725V5.712ZM1.58325 5.712H2.58325V1.488H1.58325H0.58325V5.712H1.58325ZM1.58325 1.488V2.488H17.7113V1.488V0.487999H1.58325V1.488ZM17.7113 1.488H16.7113V5.712H17.7113H18.7113V1.488H17.7113ZM17.7113 5.712V4.712H12.3113V5.712V6.712H17.7113V5.712ZM20.1276 1.488V0.487999H19.1276V1.488H20.1276ZM34.4076 1.488H35.4076V0.487999H34.4076V1.488ZM34.4076 5.448V6.448H35.4076V5.448H34.4076ZM25.4316 5.448V4.448H24.4316V5.448H25.4316ZM25.4316 7.728H24.4316V8.728H25.4316V7.728ZM33.1116 7.728H34.1116V6.728H33.1116V7.728ZM33.1116 11.52V12.52H34.1116V11.52H33.1116ZM25.4316 11.52V10.52H24.4316V11.52H25.4316ZM25.4316 14.04H24.4316V15.04H25.4316V14.04ZM34.5756 14.04H35.5756V13.04H34.5756V14.04ZM34.5756 18V19H35.5756V18H34.5756ZM20.1276 18H19.1276V19H20.1276V18ZM20.1276 1.488V2.488H34.4076V1.488V0.487999H20.1276V1.488ZM34.4076 1.488H33.4076V5.448H34.4076H35.4076V1.488H34.4076ZM34.4076 5.448V4.448H25.4316V5.448V6.448H34.4076V5.448ZM25.4316 5.448H24.4316V7.728H25.4316H26.4316V5.448H25.4316ZM25.4316 7.728V8.728H33.1116V7.728V6.728H25.4316V7.728ZM33.1116 7.728H32.1116V11.52H33.1116H34.1116V7.728H33.1116ZM33.1116 11.52V10.52H25.4316V11.52V12.52H33.1116V11.52ZM25.4316 11.52H24.4316V14.04H25.4316H26.4316V11.52H25.4316ZM25.4316 14.04V15.04H34.5756V14.04V13.04H25.4316V14.04ZM34.5756 14.04H33.5756V18H34.5756H35.5756V14.04H34.5756ZM34.5756 18V17H20.1276V18V19H34.5756V18ZM20.1276 18H21.1276V1.488H20.1276H19.1276V18H20.1276ZM51.1279 3.048L50.4736 3.80426L50.4785 3.80846L51.1279 3.048ZM53.2639 8.28V9.28H54.2639V8.28H53.2639ZM48.1999 8.28H47.1999V9.28H48.1999V8.28ZM47.4319 6L46.6833 6.66303L46.6885 6.66894L46.6938 6.67477L47.4319 6ZM42.9199 6.168L42.1244 5.56196L42.1198 5.56802L42.1153 5.57415L42.9199 6.168ZM42.9199 13.32L42.1087 13.9048L42.1164 13.9155L42.1244 13.926L42.9199 13.32ZM47.5759 13.536L46.8688 12.8289L46.8688 12.8289L47.5759 13.536ZM48.3679 11.304V10.304H47.3679V11.304H48.3679ZM53.2639 11.304H54.2639V10.304H53.2639V11.304ZM51.1759 16.488L50.5229 15.7306L50.5186 15.7343L51.1759 16.488ZM38.9119 16.128L38.2048 16.8351L38.2087 16.839L38.9119 16.128ZM38.9119 3.36L38.2087 2.64899L38.2048 2.65289L38.9119 3.36ZM45.3199 1.2V2.2C47.6012 2.2 49.2801 2.77172 50.4736 3.80425L51.1279 3.048L51.7822 2.29175C50.1276 0.86028 47.9346 0.199999 45.3199 0.199999V1.2ZM51.1279 3.048L50.4785 3.80846C51.6328 4.79418 52.2639 6.23225 52.2639 8.28H53.2639H54.2639C54.2639 5.78375 53.4709 3.73382 51.7773 2.28754L51.1279 3.048ZM53.2639 8.28V7.28H48.1999V8.28V9.28H53.2639V8.28ZM48.1999 8.28H49.1999C49.1999 7.139 48.8917 6.11467 48.1699 5.32523L47.4319 6L46.6938 6.67477C46.9961 7.00532 47.1999 7.501 47.1999 8.28H48.1999ZM47.4319 6L48.1805 5.33697C47.4504 4.51268 46.4358 4.16 45.2959 4.16V5.16V6.16C46.012 6.16 46.4214 6.36732 46.6833 6.66303L47.4319 6ZM45.2959 5.16V4.16C44.0041 4.16 42.8753 4.57646 42.1244 5.56196L42.9199 6.168L43.7153 6.77404C43.9885 6.41554 44.4436 6.16 45.2959 6.16V5.16ZM42.9199 6.168L42.1153 5.57415C41.4477 6.47867 41.1759 7.6523 41.1759 8.976H42.1759H43.1759C43.1759 7.8997 43.4001 7.20133 43.7244 6.76185L42.9199 6.168ZM42.1759 8.976H41.1759V10.512H42.1759H43.1759V8.976H42.1759ZM42.1759 10.512H41.1759C41.1759 11.8251 41.4499 12.991 42.1087 13.9048L42.9199 13.32L43.7311 12.7352C43.3979 12.273 43.1759 11.5669 43.1759 10.512H42.1759ZM42.9199 13.32L42.1244 13.926C42.8694 14.9038 43.9759 15.328 45.2479 15.328V14.328V13.328C44.4398 13.328 43.9944 13.0802 43.7153 12.714L42.9199 13.32ZM45.2479 14.328V15.328C46.4364 15.328 47.5066 15.0195 48.283 14.2431L47.5759 13.536L46.8688 12.8289C46.5892 13.1085 46.1074 13.328 45.2479 13.328V14.328ZM47.5759 13.536L48.283 14.2431C49.048 13.4781 49.3679 12.4499 49.3679 11.304H48.3679H47.3679C47.3679 12.0781 47.1598 12.5379 46.8688 12.8289L47.5759 13.536ZM48.3679 11.304V12.304H53.2639V11.304V10.304H48.3679V11.304ZM53.2639 11.304H52.2639C52.2639 13.3411 51.6453 14.763 50.5229 15.7306L51.1759 16.488L51.8288 17.2454C53.4905 15.813 54.2639 13.7789 54.2639 11.304H53.2639ZM51.1759 16.488L50.5186 15.7343C49.3843 16.7236 47.6991 17.288 45.3199 17.288V18.288V19.288C47.9967 19.288 50.2155 18.6524 51.8331 17.2417L51.1759 16.488ZM45.3199 18.288V17.288C42.6664 17.288 40.8227 16.6114 39.6151 15.417L38.9119 16.128L38.2087 16.839C39.913 18.5246 42.3413 19.288 45.3199 19.288V18.288ZM38.9119 16.128L39.619 15.4209C38.4288 14.2307 37.7519 12.3983 37.7519 9.744H36.7519H35.7519C35.7519 12.7217 36.5149 15.1453 38.2048 16.8351L38.9119 16.128ZM36.7519 9.744H37.7519C37.7519 7.08971 38.4288 5.25725 39.619 4.06711L38.9119 3.36L38.2048 2.65289C36.5149 4.34275 35.7519 6.76629 35.7519 9.744H36.7519ZM38.9119 3.36L39.6151 4.071C40.8227 2.87663 42.6664 2.2 45.3199 2.2V1.2V0.199999C42.3413 0.199999 39.913 0.963365 38.2087 2.649L38.9119 3.36ZM67.2636 18H66.2636V19H67.2636V18ZM67.2636 11.736H68.2636V10.736H67.2636V11.736ZM61.4316 11.736V10.736H60.4316V11.736H61.4316ZM61.4316 18V19H62.4316V18H61.4316ZM56.1276 18H55.1276V19H56.1276V18ZM56.1276 1.488V0.487999H55.1276V1.488H56.1276ZM61.4316 1.488H62.4316V0.487999H61.4316V1.488ZM61.4316 7.512H60.4316V8.512H61.4316V7.512ZM67.2636 7.512V8.512H68.2636V7.512H67.2636ZM67.2636 1.488V0.487999H66.2636V1.488H67.2636ZM72.5676 1.488H73.5676V0.487999H72.5676V1.488ZM72.5676 18V19H73.5676V18H72.5676ZM67.2636 18H68.2636V11.736H67.2636H66.2636V18H67.2636ZM67.2636 11.736V10.736H61.4316V11.736V12.736H67.2636V11.736ZM61.4316 11.736H60.4316V18H61.4316H62.4316V11.736H61.4316ZM61.4316 18V17H56.1276V18V19H61.4316V18ZM56.1276 18H57.1276V1.488H56.1276H55.1276V18H56.1276ZM56.1276 1.488V2.488H61.4316V1.488V0.487999H56.1276V1.488ZM61.4316 1.488H60.4316V7.512H61.4316H62.4316V1.488H61.4316ZM61.4316 7.512V8.512H67.2636V7.512V6.512H61.4316V7.512ZM67.2636 7.512H68.2636V1.488H67.2636H66.2636V7.512H67.2636ZM67.2636 1.488V2.488H72.5676V1.488V0.487999H67.2636V1.488ZM72.5676 1.488H71.5676V18H72.5676H73.5676V1.488H72.5676ZM72.5676 18V17H67.2636V18V19H72.5676V18ZM95.9199 18L95.1637 18.6543L95.4628 19H95.9199V18ZM88.9839 9.984L89.7401 9.32967L87.9839 7.3V9.984H88.9839ZM88.9839 18V19H89.9839V18H88.9839ZM84.1119 18H83.1119V19H84.1119V18ZM84.1119 1.488V0.487999H83.1119V1.488H84.1119ZM88.7439 1.488L89.5049 0.839244L89.2055 0.487999H88.7439V1.488ZM95.6799 9.624L94.9189 10.2728L96.6799 12.3384V9.624H95.6799ZM95.6799 1.488V0.487999H94.6799V1.488H95.6799ZM100.552 1.488H101.552V0.487999H100.552V1.488ZM100.552 18V19H101.552V18H100.552ZM95.9199 18L96.6762 17.3457L89.7401 9.32967L88.9839 9.984L88.2277 10.6383L95.1637 18.6543L95.9199 18ZM88.9839 9.984H87.9839V18H88.9839H89.9839V9.984H88.9839ZM88.9839 18V17H84.1119V18V19H88.9839V18ZM84.1119 18H85.1119V1.488H84.1119H83.1119V18H84.1119ZM84.1119 1.488V2.488H88.7439V1.488V0.487999H84.1119V1.488ZM88.7439 1.488L87.9829 2.13675L94.9189 10.2728L95.6799 9.624L96.4409 8.97524L89.5049 0.839244L88.7439 1.488ZM95.6799 9.624H96.6799V1.488H95.6799H94.6799V9.624H95.6799ZM95.6799 1.488V2.488H100.552V1.488V0.487999H95.6799V1.488ZM100.552 1.488H99.5519V18H100.552H101.552V1.488H100.552ZM100.552 18V17H95.9199V18V19H100.552V18ZM104.104 1.488V0.487999H103.104V1.488H104.104ZM118.384 1.488H119.384V0.487999H118.384V1.488ZM118.384 5.448V6.448H119.384V5.448H118.384ZM109.408 5.448V4.448H108.408V5.448H109.408ZM109.408 7.728H108.408V8.728H109.408V7.728ZM117.088 7.728H118.088V6.728H117.088V7.728ZM117.088 11.52V12.52H118.088V11.52H117.088ZM109.408 11.52V10.52H108.408V11.52H109.408ZM109.408 14.04H108.408V15.04H109.408V14.04ZM118.552 14.04H119.552V13.04H118.552V14.04ZM118.552 18V19H119.552V18H118.552ZM104.104 18H103.104V19H104.104V18ZM104.104 1.488V2.488H118.384V1.488V0.487999H104.104V1.488ZM118.384 1.488H117.384V5.448H118.384H119.384V1.488H118.384ZM118.384 5.448V4.448H109.408V5.448V6.448H118.384V5.448ZM109.408 5.448H108.408V7.728H109.408H110.408V5.448H109.408ZM109.408 7.728V8.728H117.088V7.728V6.728H109.408V7.728ZM117.088 7.728H116.088V11.52H117.088H118.088V7.728H117.088ZM117.088 11.52V10.52H109.408V11.52V12.52H117.088V11.52ZM109.408 11.52H108.408V14.04H109.408H110.408V11.52H109.408ZM109.408 14.04V15.04H118.552V14.04V13.04H109.408V14.04ZM118.552 14.04H117.552V18H118.552H119.552V14.04H118.552ZM118.552 18V17H104.104V18V19H118.552V18ZM104.104 18H105.104V1.488H104.104H103.104V18H104.104ZM133.832 18L132.854 18.2078L133.023 19H133.832V18ZM131.696 7.944L132.675 7.73622L132.506 6.944H131.696V7.944ZM131.6 7.944V6.944H130.791L130.622 7.73622L131.6 7.944ZM129.464 18V19H130.274L130.443 18.2078L129.464 18ZM123.632 18L122.659 18.2279L122.839 19H123.632V18ZM119.768 1.488V0.487999H118.507L118.795 1.71586L119.768 1.488ZM125.288 1.488L126.269 1.28947L126.106 0.487999H125.288V1.488ZM127.184 10.848L126.204 11.0465L126.367 11.848H127.184V10.848ZM127.28 10.848V11.848H128.1L128.261 11.0441L127.28 10.848ZM129.152 1.488V0.487999H128.333L128.172 1.29188L129.152 1.488ZM134.384 1.488L135.363 1.27984L135.194 0.487999H134.384V1.488ZM136.376 10.848L135.398 11.0562L135.567 11.848H136.376V10.848ZM136.472 10.848V11.848H137.301L137.455 11.0344L136.472 10.848ZM138.248 1.488V0.487999H137.42L137.266 1.30158L138.248 1.488ZM143.528 1.488L144.502 1.71586L144.789 0.487999H143.528V1.488ZM139.664 18V19H140.457L140.638 18.2279L139.664 18ZM133.832 18L134.811 17.7922L132.675 7.73622L131.696 7.944L130.718 8.15177L132.854 18.2078L133.832 18ZM131.696 7.944V6.944H131.6V7.944V8.944H131.696V7.944ZM131.6 7.944L130.622 7.73622L128.486 17.7922L129.464 18L130.443 18.2078L132.579 8.15177L131.6 7.944ZM129.464 18V17H123.632V18V19H129.464V18ZM123.632 18L124.606 17.7721L120.742 1.26014L119.768 1.488L118.795 1.71586L122.659 18.2279L123.632 18ZM119.768 1.488V2.488H125.288V1.488V0.487999H119.768V1.488ZM125.288 1.488L124.308 1.68653L126.204 11.0465L127.184 10.848L128.165 10.6495L126.269 1.28947L125.288 1.488ZM127.184 10.848V11.848H127.28V10.848V9.848H127.184V10.848ZM127.28 10.848L128.261 11.0441L130.133 1.68412L129.152 1.488L128.172 1.29188L126.3 10.6519L127.28 10.848ZM129.152 1.488V2.488H134.384V1.488V0.487999H129.152V1.488ZM134.384 1.488L133.406 1.69616L135.398 11.0562L136.376 10.848L137.355 10.6398L135.363 1.27984L134.384 1.488ZM136.376 10.848V11.848H136.472V10.848V9.848H136.376V10.848ZM136.472 10.848L137.455 11.0344L139.231 1.67442L138.248 1.488L137.266 1.30158L135.49 10.6616L136.472 10.848ZM138.248 1.488V2.488H143.528V1.488V0.487999H138.248V1.488ZM143.528 1.488L142.555 1.26014L138.691 17.7721L139.664 18L140.638 18.2279L144.502 1.71586L143.528 1.488ZM139.664 18V17H133.832V18V19H139.664V18ZM157.568 2.496L157.032 3.3401L157.039 3.34456L157.568 2.496ZM159.656 6.288H160.656V6.27848L160.656 6.26895L159.656 6.288ZM159.656 6.576V7.576H160.656V6.576H159.656ZM154.688 6.576H153.688V7.576H154.688V6.576ZM154.16 5.28L154.833 4.54006L154.833 4.54006L154.16 5.28ZM150.92 5.112L150.444 4.23271L150.436 4.237L150.428 4.24144L150.92 5.112ZM151.136 6.84L151.513 5.91353L151.513 5.91353L151.136 6.84ZM153.608 7.488L153.809 6.50831L153.802 6.50689L153.608 7.488ZM156.872 8.352L156.535 9.29334L156.546 9.29713L156.556 9.30068L156.872 8.352ZM160.112 12.528H161.113L161.112 12.5141L160.112 12.528ZM158.12 16.872L157.541 16.0569L157.536 16.0603L158.12 16.872ZM146.816 16.992L146.298 17.847L146.302 17.8495L146.816 16.992ZM144.68 12.408V11.408H143.68V12.408H144.68ZM149.696 12.408H150.696V11.408H149.696V12.408ZM150.344 14.088L149.79 14.9201L149.801 14.9273L149.812 14.9342L150.344 14.088ZM154.016 14.28L153.71 13.3279L153.7 13.3313L154.016 14.28ZM153.944 12.504L153.547 13.4216L153.565 13.4294L153.583 13.4366L153.944 12.504ZM151.568 11.856L151.359 12.8339L151.37 12.836L151.568 11.856ZM148.232 10.968L147.891 11.9078L147.898 11.9106L147.906 11.9132L148.232 10.968ZM145.928 9.408L145.189 10.0815L145.189 10.0815L145.928 9.408ZM147.032 2.496L147.553 3.35001L147.555 3.34832L147.032 2.496ZM152.36 1.2V2.2C154.34 2.2 155.875 2.60506 157.032 3.34007L157.568 2.496L158.105 1.65193C156.542 0.658942 154.604 0.199999 152.36 0.199999V1.2ZM157.568 2.496L157.039 3.34456C158.096 4.00334 158.631 4.94571 158.657 6.30704L159.656 6.288L160.656 6.26895C160.618 4.27029 159.761 2.68466 158.098 1.64744L157.568 2.496ZM159.656 6.288H158.656V6.576H159.656H160.656V6.288H159.656ZM159.656 6.576V5.576H154.688V6.576V7.576H159.656V6.576ZM154.688 6.576H155.688V6.48H154.688H153.688V6.576H154.688ZM154.688 6.48H155.688C155.688 5.72115 155.396 5.05152 154.833 4.54006L154.16 5.28L153.488 6.01994C153.629 6.14848 153.688 6.27884 153.688 6.48H154.688ZM154.16 5.28L154.833 4.54006C154.222 3.98473 153.397 3.8 152.552 3.8V4.8V5.8C153.148 5.8 153.395 5.93527 153.488 6.01994L154.16 5.28ZM152.552 4.8V3.8C151.773 3.8 151.038 3.9112 150.444 4.23271L150.92 5.112L151.397 5.99129C151.571 5.8968 151.924 5.8 152.552 5.8V4.8ZM150.92 5.112L150.428 4.24144C149.884 4.54889 149.368 5.08093 149.368 5.88H150.368H151.368C151.368 5.90667 151.364 5.93925 151.353 5.97315C151.342 6.0067 151.328 6.0305 151.318 6.04364C151.31 6.05584 151.308 6.05458 151.322 6.04249C151.337 6.03017 151.365 6.0093 151.412 5.98256L150.92 5.112ZM150.368 5.88H149.368C149.368 6.30983 149.502 6.72131 149.78 7.0687C150.045 7.40074 150.399 7.61965 150.76 7.76647L151.136 6.84L151.513 5.91353C151.362 5.85234 151.332 5.80726 151.341 5.8193C151.347 5.82684 151.357 5.84161 151.363 5.86074C151.369 5.87921 151.368 5.88797 151.368 5.88H150.368ZM151.136 6.84L150.76 7.76647C151.366 8.01254 152.269 8.24311 153.415 8.46911L153.608 7.488L153.802 6.50689C152.676 6.28489 151.931 6.08346 151.513 5.91353L151.136 6.84ZM153.608 7.488L153.408 8.46766C154.71 8.73438 155.748 9.01116 156.535 9.29334L156.872 8.352L157.21 7.41066C156.301 7.08484 155.163 6.78561 153.809 6.50834L153.608 7.488ZM156.872 8.352L156.556 9.30068C157.262 9.53597 157.875 9.92571 158.404 10.4817L159.128 9.792L159.853 9.10234C159.102 8.31429 158.211 7.74403 157.189 7.40332L156.872 8.352ZM159.128 9.792L158.404 10.4817C158.831 10.9298 159.099 11.5782 159.113 12.5419L160.112 12.528L161.112 12.5141C161.094 11.1738 160.706 9.99821 159.853 9.10234L159.128 9.792ZM160.112 12.528H159.112C159.112 14.2291 158.551 15.3391 157.541 16.0569L158.12 16.872L158.7 17.6871C160.346 16.5169 161.112 14.7309 161.112 12.528H160.112ZM158.12 16.872L157.536 16.0603C156.447 16.8443 154.914 17.288 152.84 17.288V18.288V19.288C155.183 19.288 157.17 18.7877 158.704 17.6837L158.12 16.872ZM152.84 18.288V17.288C150.357 17.288 148.554 16.8681 147.331 16.1345L146.816 16.992L146.302 17.8495C147.959 18.8439 150.172 19.288 152.84 19.288V18.288ZM146.816 16.992L147.335 16.1371C146.303 15.511 145.68 14.3757 145.68 12.408H144.68H143.68C143.68 14.8243 144.482 16.745 146.298 17.8469L146.816 16.992ZM144.68 12.408V13.408H149.696V12.408V11.408H144.68V12.408ZM149.696 12.408H148.696C148.696 13.367 148.943 14.3553 149.79 14.9201L150.344 14.088L150.899 13.2559C150.882 13.2447 150.696 13.113 150.696 12.408H149.696ZM150.344 14.088L149.812 14.9342C150.485 15.3583 151.388 15.496 152.36 15.496V14.496V13.496C151.508 13.496 151.068 13.3617 150.877 13.2418L150.344 14.088ZM152.36 14.496V15.496C153.094 15.496 153.763 15.4187 154.333 15.2287L154.016 14.28L153.7 13.3313C153.406 13.4293 152.971 13.496 152.36 13.496V14.496ZM154.016 14.28L154.322 15.232C154.69 15.114 155.052 14.9045 155.318 14.5534C155.587 14.1981 155.688 13.7875 155.688 13.392H154.688H153.688C153.688 13.421 153.685 13.4248 153.689 13.4112C153.694 13.3958 153.704 13.3716 153.723 13.3466C153.742 13.3219 153.759 13.3096 153.763 13.3069C153.765 13.3052 153.751 13.3148 153.71 13.328L154.016 14.28ZM154.688 13.392H155.688C155.688 12.9663 155.55 12.5627 155.269 12.2278C155.003 11.9106 154.654 11.7065 154.305 11.5714L153.944 12.504L153.583 13.4366C153.654 13.4639 153.698 13.488 153.721 13.5037C153.745 13.519 153.745 13.5236 153.736 13.5122C153.725 13.4994 153.711 13.477 153.7 13.4472C153.69 13.4178 153.688 13.3969 153.688 13.392H154.688ZM153.944 12.504L154.342 11.5864C153.76 11.3341 152.88 11.1017 151.767 10.876L151.568 11.856L151.37 12.836C152.465 13.0583 153.169 13.2579 153.547 13.4216L153.944 12.504ZM151.568 11.856L151.778 10.8782C150.457 10.5951 149.387 10.309 148.559 10.0228L148.232 10.968L147.906 11.9132C148.838 12.235 149.992 12.5409 151.359 12.8338L151.568 11.856ZM148.232 10.968L148.574 10.0282C147.852 9.76576 147.219 9.33987 146.668 8.73451L145.928 9.408L145.189 10.0815C145.95 10.9161 146.852 11.5302 147.891 11.9078L148.232 10.968ZM145.928 9.408L146.668 8.73451C146.22 8.2437 145.944 7.53131 145.944 6.48H144.944H143.944C143.944 7.89269 144.324 9.1323 145.189 10.0815L145.928 9.408ZM144.944 6.48H145.944C145.944 4.97524 146.496 3.99397 147.553 3.35001L147.032 2.496L146.512 1.64199C144.785 2.69403 143.944 4.36876 143.944 6.48H144.944ZM147.032 2.496L147.555 3.34832C148.766 2.60567 150.347 2.2 152.36 2.2V1.2V0.199999C150.086 0.199999 148.115 0.658326 146.509 1.64368L147.032 2.496Z" fill="black" fill-opacity="0.2" mask="url(#path-1-outside-1_4109_367)"/>
</svg>
